<?xml version="1.0" encoding="utf-8"?>
<!-- Generator: Adobe Illustrator 17.1.0, SVG Export Plug-In . SVG Version: 6.00 Build 0)  -->
<!DOCTYPE svg PUBLIC "-//W3C//DTD SVG 1.1//EN" "http://www.w3.org/Graphics/SVG/1.1/DTD/svg11.dtd">
<svg version="1.1" id="brush" xmlns="http://www.w3.org/2000/svg" xmlns:xlink="http://www.w3.org/1999/xlink" x="0px" y="0px"
	 viewBox="0 0 1009.9766 1009.9527" enable-background="new 0 0 1009.9766 1009.9527" xml:space="preserve">
<g id="brush-label">
	<path fill="#584D5C" d="M504.9644,0C226.1074,0,0,226.1314,0,505c0,278.8921,226.1074,504.9527,504.9644,504.9527
		c278.9048,0,505.0122-226.0606,505.0122-504.9527C1009.9766,226.1314,783.8692,0,504.9644,0z"/>
</g>
<g id="brush-brush">
	<path fill="#FFFFFF" d="M511.2569,587.9966l-38.1016-31.9043c-8.8906-7.4609-22.1675-6.2803-29.6162,2.6338
		c-7.4487,8.8906-6.2686,22.1553,2.6338,29.6162l38.1015,31.9043c8.9151,7.4492,22.1553,6.2686,29.6045-2.6221
		C521.3281,608.7105,520.1602,595.4575,511.2569,587.9966z"/>
	<path fill="#FFFFFF" d="M764.5977,252.8394l-3.6953-3.0923c-20.2246-16.9356-50.6514-14.2481-67.5987,6.0005L479.8413,480.7471
		c-16.9355,20.2485-14.2417,50.6753,5.9947,67.6226l33.0957,27.7334c20.249,16.9355,50.6875,14.2412,67.623-5.9834l184.002-249.6753
		C787.5274,300.2134,784.834,269.793,764.5977,252.8394z M713.1836,277.7305l-85.3447,101.2671
		c-2.0977,2.4248-5.8399,2.6933-8.2715,0.5659l-3.9561-3.4741c-2.4434-2.1275-2.6943-5.8516-0.5839-8.2891l88.9199-98.1562
		c2.1094-2.4434,5.8398-2.6875,8.2588-0.5601l0.4521,0.3814C715.0781,271.5865,715.3281,275.3169,713.1836,277.7305z"/>
	<path fill="#FFFFFF" d="M432.7178,588.3306c-80.3984-28.2695-115.044,43.8818-119.0967,104.8066
		c-4.04,60.9248-54.417,60.6865-54.417,60.6865c278.1172,76.6085,224.3555-122.9219,224.3555-122.9219L432.7178,588.3306z
		 M334.3584,666.7984c13.1817-90.9102,84.2007-68.5284,84.2007-68.5284l27.7808,19.8438
		C373.7832,596.3872,334.3584,666.7984,334.3584,666.7984z"/>
	<path fill="#FFFFFF" d="M316.625,471.94c-49.0185,7.3886-20.1059,69.8271,11.1787,119.8945
		C327.8037,591.8345,381.4707,462.1909,316.625,471.94z"/>
	<path fill="#FFFFFF" d="M231.2207,549.1675c-16.1367,34.6816,36.3614,42.6904,81.876,43.8828
		C313.0967,593.0503,252.5777,503.2954,231.2207,549.1675z"/>
</g>
</svg>
