<?xml version="1.0" ?><svg height="32" id="svg4063" version="1.1" viewBox="0 0 32 32.000001" width="32" xmlns="http://www.w3.org/2000/svg" xmlns:cc="http://creativecommons.org/ns#" xmlns:dc="http://purl.org/dc/elements/1.1/" xmlns:inkscape="http://www.inkscape.org/namespaces/inkscape" xmlns:rdf="http://www.w3.org/1999/02/22-rdf-syntax-ns#" xmlns:sodipodi="http://sodipodi.sourceforge.net/DTD/sodipodi-0.dtd" xmlns:svg="http://www.w3.org/2000/svg"><defs id="defs4065"/><g id="layer1" transform="translate(0,-1020.3621)"><g id="g7700"><path d="m 13,1023.3621 -0.51172,3.4492 a 10.499982,10.499982 0 0 0 -1.96484,0.8145 l -2.80078,-2.0782 -3.53711,3.5372 2.07422,2.7949 a 10.499982,10.499982 0 0 0 -0.81446,1.9726 L 2,1034.3621 l 0,5 3.44922,0.5117 a 10.499982,10.499982 0 0 0 0.81445,1.9649 l -2.07812,2.8007 3.53711,3.5372 2.79492,-2.0743 a 10.499982,10.499982 0 0 0 1.97265,0.8145 l 0.50977,3.4453 5,0 0.51172,-3.4492 a 10.499982,10.499982 0 0 0 1.96484,-0.8145 l 2.80078,2.0782 3.53711,-3.5372 -2.07422,-2.7949 a 10.499982,10.499982 0 0 0 0.81446,-1.9726 L 29,1039.3621 l 0,-5 -3.44922,-0.5117 a 10.499982,10.499982 0 0 0 -0.81445,-1.9649 l 2.07812,-2.8007 -3.53711,-3.5372 -2.79492,2.0743 a 10.499982,10.499982 0 0 0 -1.97265,-0.8145 L 18,1023.3621 l -5,0 z" id="path4966" style="opacity:1;fill:#518ff5;fill-opacity:1;stroke:none;stroke-width:1;stroke-linecap:round;stroke-linejoin:round;stroke-miterlimit:4.0999999;stroke-dasharray:none"/><path d="m 18,1039.8621 0,10.5 -5,0 0,-10.5" id="path5143" style="opacity:1;fill:#f5ba15;fill-opacity:1;stroke:none;stroke-width:0.99999994;stroke-linecap:round;stroke-linejoin:round;stroke-miterlimit:4.0999999;stroke-dasharray:none"/><path d="m 13,1031.9637 a 5.5,5.5 0 0 0 -3,4.8984 5.5,5.5 0 0 0 5.5,5.5 5.5,5.5 0 0 0 5.5,-5.5 5.5,5.5 0 0 0 -3,-4.8926 l 0,4.8926 -2.5,1.5 -2.5,-1.5 0,-4.8984 z" id="path5141" style="opacity:1;fill:#f5ba15;fill-opacity:1;stroke:none;stroke-width:1;stroke-linecap:round;stroke-linejoin:round;stroke-miterlimit:4.0999999;stroke-dasharray:none"/></g></g></svg>