<?xml version="1.0" ?><svg viewBox="0 0 512 512" xmlns="http://www.w3.org/2000/svg"><g id="Product_review"><path d="M255.8408,207.8718A36.5687,36.5687,0,0,0,219.3135,244.4V257.903H198.1943a11.5606,11.5606,0,0,0-11.49,10.2829l-10.3018,92.62a29.79,29.79,0,0,0,29.607,33.0826h99.2685a30.1422,30.1422,0,0,0,29.9575-33.4743l-10.2583-92.2287a11.5605,11.5605,0,0,0-11.49-10.2829H292.3691V244.4A36.57,36.57,0,0,0,255.8408,207.8718ZM231.3135,244.4a24.5278,24.5278,0,1,1,49.0556,0V257.903H231.3135Zm81.7812,25.5033L323.31,361.7411a18.1426,18.1426,0,0,1-18.0313,20.1478H206.01a17.79,17.79,0,0,1-17.6807-19.7561l10.2583-92.23h20.7261v15.6843h12V269.903h49.0556v15.6843h12V269.903Z"/><path d="M425.0786,75.3h-28.06v.01h-20.07V75.3h-98.13a18.7568,18.7568,0,0,0-18.73,18.74v60.24a18.7482,18.7482,0,0,0,18.73,18.73h5.84v16.04a9.58,9.58,0,0,0,6.02,8.92,9.7212,9.7212,0,0,0,3.62.71,9.5969,9.5969,0,0,0,6.9-2.95l16.65-17.24a18.02,18.02,0,0,1,12.89-5.48h94.34a18.757,18.757,0,0,0,18.74-18.73V94.04A18.7655,18.7655,0,0,0,425.0786,75.3Zm6.74,78.98a6.741,6.741,0,0,1-6.74,6.73h-94.34a30.0856,30.0856,0,0,0-21.53,9.14l-12.55,13v-12.2a9.9525,9.9525,0,0,0-9.94-9.94h-7.9a6.7388,6.7388,0,0,1-6.73-6.73V94.04a6.7409,6.7409,0,0,1,6.73-6.74h146.26a6.7431,6.7431,0,0,1,6.74,6.74Z"/><path d="M317.439,115.6039h-5.8638a3.3174,3.3174,0,0,1-3.1548-2.2919l-1.812-5.5768a3.3169,3.3169,0,0,0-6.3091,0l-1.812,5.5768a3.3163,3.3163,0,0,1-3.1543,2.2919h-5.8638a3.3169,3.3169,0,0,0-1.95,6l4.7442,3.4466a3.317,3.317,0,0,1,1.2046,3.7084l-1.8121,5.5767a3.3171,3.3171,0,0,0,5.1045,3.7085l4.7437-3.4467a3.3172,3.3172,0,0,1,3.8994,0l4.7437,3.4467a3.3168,3.3168,0,0,0,5.104-3.7085l-1.812-5.5767a3.317,3.317,0,0,1,1.205-3.7084l4.7442-3.4466A3.317,3.317,0,0,0,317.439,115.6039Z"/><path d="M365.936,115.6039h-5.8637a3.3163,3.3163,0,0,1-3.1543-2.2919l-1.812-5.5768a3.3169,3.3169,0,0,0-6.3091,0l-1.812,5.5768a3.3175,3.3175,0,0,1-3.1548,2.2919h-5.8638a3.317,3.317,0,0,0-1.95,6l4.7441,3.4466a3.3171,3.3171,0,0,1,1.2051,3.7084l-1.812,5.5767a3.3168,3.3168,0,0,0,5.104,3.7085l4.7437-3.4467a3.3172,3.3172,0,0,1,3.8994,0l4.7436,3.4467a3.3171,3.3171,0,0,0,5.1045-3.7085l-1.812-5.5767a3.3165,3.3165,0,0,1,1.2051-3.7084l4.7436-3.4466A3.3168,3.3168,0,0,0,365.936,115.6039Z"/><path d="M414.4331,115.6039H408.57a3.3171,3.3171,0,0,1-3.1548-2.2919l-1.812-5.5768a3.3169,3.3169,0,0,0-6.3091,0l-1.812,5.5768a3.3167,3.3167,0,0,1-3.1543,2.2919h-5.8637a3.3168,3.3168,0,0,0-1.95,6l4.7436,3.4466a3.3172,3.3172,0,0,1,1.2051,3.7084l-1.812,5.5767a3.3169,3.3169,0,0,0,5.104,3.7085l4.7441-3.4467a3.3165,3.3165,0,0,1,3.8989,0l4.7442,3.4467a3.3168,3.3168,0,0,0,5.104-3.7085l-1.812-5.5767a3.3171,3.3171,0,0,1,1.2051-3.7084l4.7436-3.4466A3.3168,3.3168,0,0,0,414.4331,115.6039Z"/><path d="M371.5688,428.7551a10,10,0,0,1-10,10H150.4311a10,10,0,0,1-10-10V91.8172a10,10,0,0,1,10-10H250.6294A30.7711,30.7711,0,0,1,278.8188,63.3h98.13l8.07.0067V63.3h1.7656a32.6887,32.6887,0,0,0-32.6709-31.7251H157.8867A32.6952,32.6952,0,0,0,125.1914,64.27V456.8345a32.695,32.695,0,0,0,32.6953,32.6948H354.1133a32.695,32.695,0,0,0,32.6953-32.6948V185.01h-15.24Zm-92.7143,40.5623H233.0918v-12h45.7627Z"/></g></svg>