<?xml version="1.0" encoding="UTF-8" standalone="no"?>
<svg
   xmlns:dc="http://purl.org/dc/elements/1.1/"
   xmlns:cc="http://creativecommons.org/ns#"
   xmlns:rdf="http://www.w3.org/1999/02/22-rdf-syntax-ns#"
   xmlns:svg="http://www.w3.org/2000/svg"
   xmlns="http://www.w3.org/2000/svg"
   xmlns:sodipodi="http://sodipodi.sourceforge.net/DTD/sodipodi-0.dtd"
   xmlns:inkscape="http://www.inkscape.org/namespaces/inkscape"
   width="18.855228mm"
   height="17.889181mm"
   viewBox="0 0 18.855229 17.889182"
   version="1.1"
   id="svg8037"
   inkscape:version="1.0.1 (1.0.1+r73)"
   sodipodi:docname="design_20.svg">
  <defs
     id="defs8031" />
  <sodipodi:namedview
     id="base"
     pagecolor="#ffffff"
     bordercolor="#666666"
     borderopacity="1.0"
     inkscape:pageopacity="0.0"
     inkscape:pageshadow="2"
     inkscape:zoom="1.33"
     inkscape:cx="43.069482"
     inkscape:cy="50.973941"
     inkscape:document-units="mm"
     inkscape:current-layer="layer1"
     inkscape:document-rotation="0"
     showgrid="false"
     fit-margin-top="1"
     fit-margin-right="1"
     fit-margin-bottom="1"
     fit-margin-left="1"
     inkscape:window-width="1853"
     inkscape:window-height="1025"
     inkscape:window-x="67"
     inkscape:window-y="27"
     inkscape:window-maximized="1" />
  <metadata
     id="metadata8034">
    <rdf:RDF>
      <cc:Work
         rdf:about="">
        <dc:format>image/svg+xml</dc:format>
        <dc:type
           rdf:resource="http://purl.org/dc/dcmitype/StillImage" />
        <dc:title></dc:title>
      </cc:Work>
    </rdf:RDF>
  </metadata>
  <g
     inkscape:label="Capa 1"
     inkscape:groupmode="layer"
     id="layer1"
     transform="translate(-94.437879,-63.063269)">
    <g
       id="g14298"
       transform="matrix(0.35277777,0,0,-0.35277777,-14.315025,120.46873)">
      <g
         id="g1564"
         transform="translate(345.2395,137.1769)">
        <path
           d="M 0,0 C 0,0.707 -0.403,1.312 -1.055,1.584 L -9.048,4.91 c -1.063,0.441 -2.282,0.444 -3.344,0.002 L -32.719,-3.51 c -0.652,-0.271 -1.057,-0.877 -1.057,-1.582 -10e-4,-0.704 0.403,-1.31 1.054,-1.582 L -24.728,-10 c 0.54,-0.225 1.107,-0.335 1.674,-0.335 0.566,0 1.131,0.11 1.67,0.333 L -1.057,-1.58 C -0.406,-1.31 0,-0.704 0,0"
           style="fill:#dadada;fill-opacity:1;fill-rule:nonzero;stroke:none"
           id="path1566" />
      </g>
      <g
         id="g1568"
         transform="translate(322.8244,127.1706)">
        <path
           d="m 0,0 1.443,0.598 c 0.756,0.313 1.249,1.051 1.249,1.869 v 15.512 6.477 2.071 c 0,0.987 -0.594,1.877 -1.506,2.257 l -8.289,3.447 c -0.72,0.3 -1.531,0.299 -2.251,-0.002 L -10.67,31.68"
           style="fill:#dadada;fill-opacity:1;fill-rule:nonzero;stroke:none"
           id="path1570" />
      </g>
      <g
         id="g1572"
         transform="translate(325.5163,151.3605)">
        <path
           d="m 0,0 c -0.146,0 -0.265,0.119 -0.265,0.266 v 2.071 c 0,0.883 -0.527,1.673 -1.342,2.012 l -8.289,3.447 c -0.65,0.271 -1.397,0.272 -2.047,-0.001 L -13.26,7.246 c -0.134,-0.059 -0.29,0.006 -0.347,0.142 -0.056,0.135 0.007,0.291 0.143,0.347 l 1.317,0.55 c 0.779,0.325 1.674,0.325 2.454,0.002 L -1.404,4.839 C -0.39,4.417 0.265,3.436 0.265,2.337 V 0.266 C 0.265,0.119 0.146,0 0,0"
           style="fill:#41404d;fill-opacity:1;fill-rule:nonzero;stroke:none"
           id="path1574" />
      </g>
      <g
         id="g1576"
         transform="translate(322.8244,126.9059)">
        <path
           d="m 0,0 c -0.104,0 -0.203,0.061 -0.245,0.164 -0.056,0.135 0.008,0.29 0.143,0.347 L 1.341,1.107 C 2,1.381 2.427,2.019 2.427,2.731 v 17.86 c 0,0.146 0.118,0.265 0.265,0.265 0.146,0 0.265,-0.119 0.265,-0.265 V 2.731 C 2.957,1.803 2.403,0.974 1.544,0.618 L 0.102,0.02 C 0.068,0.006 0.034,0 0,0"
           style="fill:#41404d;fill-opacity:1;fill-rule:nonzero;stroke:none"
           id="path1578" />
      </g>
      <g
         id="g1580"
         transform="translate(323.6472,128.4138)">
        <path
           d="m 0,0 c 0,-0.963 -0.979,-1.616 -1.868,-1.246 l -8.898,3.702 c -0.911,0.379 -1.505,1.27 -1.505,2.257 v 24.501 c 0,0.962 0.979,1.615 1.868,1.245 l 8.898,-3.702 C -0.594,26.378 0,25.488 0,24.5 Z"
           style="fill:#f4c151;fill-opacity:1;fill-rule:nonzero;stroke:none"
           id="path1582" />
      </g>
      <g
         id="g1584"
         transform="translate(322.2986,126.799)">
        <path
           d="m 0,0 c -0.21,0 -0.421,0.041 -0.621,0.125 l -8.898,3.701 c -1.014,0.422 -1.669,1.403 -1.669,2.502 v 24.501 c 0,0.54 0.269,1.042 0.719,1.342 0.45,0.301 1.017,0.355 1.516,0.148 l 8.898,-3.702 C 0.959,28.195 1.614,27.212 1.614,26.115 V 8.678 c 0,-0.146 -0.119,-0.265 -0.265,-0.265 -0.147,0 -0.266,0.119 -0.266,0.265 v 17.437 c 0,0.883 -0.526,1.673 -1.342,2.012 l -8.898,3.702 c -0.34,0.141 -0.712,0.105 -1.018,-0.099 -0.306,-0.204 -0.482,-0.533 -0.482,-0.901 V 6.328 c 0,-0.883 0.527,-1.673 1.342,-2.013 l 8.898,-3.702 c 0.34,-0.141 0.712,-0.105 1.018,0.1 0.306,0.204 0.482,0.533 0.482,0.902 v 4.71 c 0,0.146 0.119,0.265 0.266,0.265 0.146,0 0.265,-0.119 0.265,-0.265 V 1.615 C 1.614,1.074 1.345,0.571 0.896,0.271 0.625,0.091 0.314,0 0,0"
           style="fill:#41404d;fill-opacity:1;fill-rule:nonzero;stroke:none"
           id="path1586" />
      </g>
      <g
         id="g1588"
         transform="translate(315.5515,157.884)">
        <path
           d="m 0,0 3.732,-1.553 v -0.672 c 0,-0.292 -0.297,-0.491 -0.567,-0.379 L 0.458,-1.478 C 0.181,-1.362 0,-1.091 0,-0.791 Z"
           style="fill:#ffffff;fill-opacity:1;fill-rule:nonzero;stroke:none"
           id="path1590" />
      </g>
      <g
         id="g1592"
         transform="translate(315.8171,157.486)">
        <path
           d="M 0,0 V -0.393 C 0,-0.587 0.115,-0.76 0.294,-0.834 L 3.001,-1.96 c 0.062,-0.027 0.116,0 0.136,0.013 0.019,0.012 0.065,0.051 0.065,0.12 v 0.494 z m 3.057,-2.502 c -0.088,0 -0.176,0.017 -0.26,0.051 L 0.09,-1.325 c -0.377,0.158 -0.621,0.523 -0.621,0.932 v 0.791 c 0,0.088 0.045,0.171 0.118,0.221 0.074,0.048 0.168,0.057 0.249,0.024 L 3.569,-0.91 C 3.668,-0.952 3.732,-1.048 3.732,-1.155 V -1.827 C 3.732,-2.053 3.62,-2.263 3.431,-2.389 3.318,-2.464 3.188,-2.502 3.057,-2.502"
           style="fill:#41404d;fill-opacity:1;fill-rule:nonzero;stroke:none"
           id="path1594" />
      </g>
      <g
         id="g1596"
         transform="translate(318.9275,130.2253)">
        <path
           d="m 0,0 c -0.033,0 -0.067,0.006 -0.099,0.02 l -3.107,1.251 c -0.136,0.053 -0.202,0.208 -0.147,0.344 0.054,0.136 0.211,0.203 0.345,0.147 L 0.099,0.511 C 0.235,0.457 0.301,0.302 0.246,0.166 0.205,0.063 0.105,0 0,0"
           style="fill:#41404d;fill-opacity:1;fill-rule:nonzero;stroke:none"
           id="path1598" />
      </g>
      <g
         id="g1600"
         transform="translate(315.5573,145.2629)">
        <path
           d="m 0,0 c -0.079,0 -0.157,0.035 -0.209,0.102 l -1.862,2.382 c -0.054,0.07 -0.071,0.162 -0.044,0.246 0.028,0.083 0.095,0.149 0.18,0.173 l 2.51,0.716 C 0.714,3.662 0.862,3.578 0.902,3.437 0.942,3.295 0.861,3.149 0.72,3.109 L -1.411,2.501 0.209,0.429 C 0.299,0.313 0.279,0.146 0.163,0.056 0.115,0.019 0.058,0 0,0"
           style="fill:#41404d;fill-opacity:1;fill-rule:nonzero;stroke:none"
           id="path1602" />
      </g>
      <g
         id="g1604"
         transform="translate(316.2458,143.1642)">
        <path
           d="M 0,0 C -0.032,0 -0.065,0.006 -0.097,0.019 -0.233,0.072 -0.3,0.226 -0.247,0.363 L 1.956,5.968 C 2.011,6.103 2.165,6.171 2.3,6.118 2.437,6.065 2.504,5.91 2.451,5.773 L 0.247,0.168 C 0.206,0.064 0.106,0 0,0"
           style="fill:#41404d;fill-opacity:1;fill-rule:nonzero;stroke:none"
           id="path1606" />
      </g>
      <g
         id="g1608"
         transform="translate(318.6018,144.1335)">
        <path
           d="m 0,0 c -0.123,0 -0.233,0.086 -0.259,0.211 -0.03,0.143 0.062,0.284 0.205,0.314 l 2.297,0.48 -1.8,2.19 C 0.35,3.309 0.366,3.476 0.479,3.569 0.592,3.661 0.759,3.646 0.853,3.533 L 2.932,1.004 C 2.991,0.932 3.008,0.835 2.977,0.747 2.946,0.66 2.872,0.595 2.781,0.575 L 0.055,0.005 C 0.037,0.002 0.019,0 0,0"
           style="fill:#41404d;fill-opacity:1;fill-rule:nonzero;stroke:none"
           id="path1610" />
      </g>
      <g
         id="g1612"
         transform="translate(313.5417,141.9626)">
        <path
           d="M 0,0 7.94,-3.303 V -5.467 L 0.015,-2.169 Z"
           style="fill:#ffffff;fill-opacity:1;fill-rule:nonzero;stroke:none"
           id="path1614" />
      </g>
      <g
         id="g1616"
         transform="translate(313.821,139.9704)">
        <path
           d="m 0,0 7.396,-3.077 v 1.589 l -7.407,3.081 z m 7.661,-3.74 c -0.035,0 -0.069,0.006 -0.102,0.021 l -7.925,3.298 c -0.098,0.04 -0.163,0.135 -0.164,0.242 L -0.544,1.99 c -0.001,0.089 0.043,0.173 0.116,0.221 0.075,0.051 0.168,0.061 0.251,0.025 l 7.94,-3.302 c 0.099,-0.04 0.163,-0.138 0.163,-0.245 v -2.164 c 0,-0.089 -0.044,-0.171 -0.118,-0.22 C 7.764,-3.724 7.713,-3.74 7.661,-3.74"
           style="fill:#41404d;fill-opacity:1;fill-rule:nonzero;stroke:none"
           id="path1618" />
      </g>
      <g
         id="g1620"
         transform="translate(357.8342,128.6349)">
        <path
           d="m 0,0 -7.994,3.325 c -1.06,0.442 -2.278,0.44 -3.343,0.002 l -20.328,-8.422 c -0.651,-0.271 -1.056,-0.877 -1.057,-1.582 0,-0.704 0.404,-1.311 1.055,-1.582 l 7.993,-3.326 c 0.54,-0.224 1.107,-0.337 1.674,-0.337 0.565,0 1.131,0.113 1.67,0.336 l 20.328,8.421 c 0.651,0.27 1.056,0.876 1.057,1.58 C 1.055,-0.878 0.651,-0.272 0,0"
           style="fill:#dadada;fill-opacity:1;fill-rule:nonzero;stroke:none"
           id="path1622" />
      </g>
      <g
         id="g1624"
         transform="translate(320.3694,122.0026)">
        <path
           d="m 0,0 0.009,-1.953 c -0.052,-0.38 0.131,-0.789 0.549,-0.963 l 8.886,-3.697 c 0.872,-0.363 1.853,-0.364 2.725,-0.002 l 21.222,8.793 c 0.372,0.154 0.558,0.495 0.559,0.836 l -0.013,2.173"
           style="fill:#dadada;fill-opacity:1;fill-rule:nonzero;stroke:none"
           id="path1626" />
      </g>
      <g
         id="g1628"
         transform="translate(331.1779,114.8493)">
        <path
           d="m 0,0 c -0.497,0 -0.994,0.099 -1.466,0.295 l -8.887,3.698 c -0.498,0.207 -0.784,0.707 -0.71,1.243 l -0.011,1.916 c 0,0.146 0.118,0.265 0.264,0.266 h 0.001 c 0.146,0 0.265,-0.118 0.266,-0.264 l 0.008,-1.953 c -0.036,-0.282 0.071,-0.587 0.386,-0.719 L -1.262,0.785 C -0.45,0.448 0.446,0.447 1.259,0.784 l 21.222,8.793 c 0.291,0.12 0.395,0.384 0.395,0.59 l -0.014,2.171 c -10e-4,0.147 0.117,0.266 0.263,0.268 h 0.002 c 0.147,0 0.265,-0.118 0.266,-0.264 l 0.013,-2.173 c 0,-0.483 -0.276,-0.898 -0.722,-1.083 L 1.462,0.293 C 0.99,0.097 0.495,0 0,0"
           style="fill:#41404d;fill-opacity:1;fill-rule:nonzero;stroke:none"
           id="path1630" />
      </g>
      <g
         id="g1632"
         transform="translate(344.8747,131.5822)">
        <path
           d="M 0,0 8.887,-3.697 C 9.631,-4.007 9.63,-5.061 8.886,-5.37 l -21.222,-8.793 c -0.872,-0.361 -1.853,-0.36 -2.725,0.003 l -8.887,3.697 c -0.744,0.31 -0.743,1.364 0.001,1.672 L -2.725,0.002 C -1.853,0.363 -0.872,0.363 0,0"
           style="fill:#f4c151;fill-opacity:1;fill-rule:nonzero;stroke:none"
           id="path1634" />
      </g>
      <g
         id="g1636"
         transform="translate(331.1779,116.8815)">
        <path
           d="m 0,0 c -0.497,0 -0.994,0.099 -1.466,0.295 l -8.887,3.698 c -0.445,0.185 -0.721,0.6 -0.721,1.082 0,0.482 0.278,0.895 0.722,1.08 L 4.943,12.493 C 5.077,12.546 5.234,12.485 5.291,12.349 5.347,12.213 5.282,12.059 5.146,12.001 L -10.148,5.665 c -0.291,-0.121 -0.395,-0.384 -0.395,-0.591 -0.001,-0.206 0.103,-0.47 0.394,-0.592 L -1.262,0.785 C -0.45,0.447 0.446,0.448 1.259,0.783 l 21.222,8.794 c 0.291,0.12 0.395,0.384 0.395,0.59 0,0.207 -0.104,0.471 -0.394,0.592 l -8.887,3.698 c -0.801,0.332 -1.72,0.333 -2.522,10e-4 L 9.208,13.686 c -0.134,-0.06 -0.291,0.006 -0.346,0.143 -0.057,0.135 0.007,0.29 0.143,0.346 l 1.865,0.773 c 0.933,0.386 1.999,0.384 2.928,-0.002 l 8.887,-3.698 c 0.446,-0.185 0.721,-0.599 0.721,-1.081 0,-0.481 -0.276,-0.896 -0.722,-1.081 L 1.462,0.293 C 0.99,0.097 0.495,0 0,0"
           style="fill:#41404d;fill-opacity:1;fill-rule:nonzero;stroke:none"
           id="path1638" />
      </g>
      <g
         id="g1640"
         transform="translate(346.4992,130.841)">
        <path
           d="M 0,0 4.388,-1.826 3.101,-2.337 C 2.826,-2.451 2.517,-2.451 2.242,-2.336 l -3.161,1.199 c -0.366,0.152 -0.366,0.671 0.001,0.823 z"
           style="fill:#ffffff;fill-opacity:1;fill-rule:nonzero;stroke:none"
           id="path1642" />
      </g>
      <g
         id="g1644"
         transform="translate(346.4895,130.5568)">
        <path
           d="m 0,0 -0.823,-0.281 c -0.085,-0.036 -0.095,-0.125 -0.095,-0.161 0,-0.036 0.01,-0.125 0.11,-0.166 l 3.155,-1.196 c 0.214,-0.09 0.452,-0.091 0.663,-0.004 l 0.684,0.272 z m 2.683,-2.402 c -0.181,0 -0.364,0.035 -0.533,0.106 l -3.154,1.195 c -0.278,0.115 -0.445,0.366 -0.445,0.659 0,0.293 0.168,0.545 0.439,0.656 l 0.933,0.321 c 0.061,0.02 0.128,0.019 0.188,-0.007 L 4.5,-1.296 C 4.599,-1.338 4.665,-1.436 4.664,-1.543 4.663,-1.651 4.596,-1.748 4.497,-1.788 L 3.208,-2.3 C 3.042,-2.368 2.862,-2.402 2.683,-2.402"
           style="fill:#41404d;fill-opacity:1;fill-rule:nonzero;stroke:none"
           id="path1646" />
      </g>
      <g
         id="g1648"
         transform="translate(338.8264,121.8932)">
        <path
           d="M 0,0 C -0.035,0 -0.069,0.006 -0.102,0.021 L -7.554,3.12 c -0.135,0.056 -0.199,0.212 -0.143,0.346 0.056,0.137 0.212,0.202 0.347,0.143 L 0.102,0.51 C 0.237,0.454 0.301,0.298 0.244,0.164 0.202,0.061 0.104,0 0,0"
           style="fill:#41404d;fill-opacity:1;fill-rule:nonzero;stroke:none"
           id="path1650" />
      </g>
      <g
         id="g1652"
         transform="translate(334.9753,121.8342)">
        <path
           d="M 0,0 C -0.034,0 -0.068,0.006 -0.102,0.021 L -3.844,1.578 C -3.979,1.634 -4.043,1.79 -3.987,1.924 -3.931,2.06 -3.776,2.126 -3.64,2.067 L 0.102,0.51 C 0.237,0.454 0.301,0.298 0.245,0.164 0.202,0.061 0.104,0 0,0"
           style="fill:#41404d;fill-opacity:1;fill-rule:nonzero;stroke:none"
           id="path1654" />
      </g>
      <g
         id="g1656"
         transform="translate(344.0041,125.8967)">
        <path
           d="m 0,0 c 0,-0.968 -1.671,-1.753 -3.732,-1.753 -2.062,0 -3.733,0.785 -3.733,1.753 0,0.968 1.671,1.752 3.733,1.752 C -1.671,1.752 0,0.968 0,0"
           style="fill:#ffffff;fill-opacity:1;fill-rule:nonzero;stroke:none"
           id="path1658" />
      </g>
      <g
         id="g1660"
         transform="translate(340.2717,127.3835)">
        <path
           d="m 0,0 c -2.043,0 -3.467,-0.783 -3.467,-1.487 0,-0.704 1.424,-1.487 3.467,-1.487 2.042,0 3.467,0.783 3.467,1.487 C 3.467,-0.783 2.042,0 0,0 m 0,-3.505 c -2.241,0 -3.998,0.886 -3.998,2.018 0,1.132 1.757,2.018 3.998,2.018 2.242,0 3.997,-0.886 3.997,-2.018 0,-1.132 -1.755,-2.018 -3.997,-2.018"
           style="fill:#41404d;fill-opacity:1;fill-rule:nonzero;stroke:none"
           id="path1662" />
      </g>
    </g>
  </g>
</svg>
