<?xml version="1.0" encoding="UTF-8" standalone="no"?>
<svg
   xmlns:dc="http://purl.org/dc/elements/1.1/"
   xmlns:cc="http://creativecommons.org/ns#"
   xmlns:rdf="http://www.w3.org/1999/02/22-rdf-syntax-ns#"
   xmlns:svg="http://www.w3.org/2000/svg"
   xmlns="http://www.w3.org/2000/svg"
   xmlns:sodipodi="http://sodipodi.sourceforge.net/DTD/sodipodi-0.dtd"
   xmlns:inkscape="http://www.inkscape.org/namespaces/inkscape"
   width="21.286678mm"
   height="18.919699mm"
   viewBox="0 0 21.286679 18.9197"
   version="1.1"
   id="svg8037"
   inkscape:version="1.0.1 (1.0.1+r73)"
   sodipodi:docname="design_21.svg">
  <defs
     id="defs8031" />
  <sodipodi:namedview
     id="base"
     pagecolor="#ffffff"
     bordercolor="#666666"
     borderopacity="1.0"
     inkscape:pageopacity="0.0"
     inkscape:pageshadow="2"
     inkscape:zoom="1.33"
     inkscape:cx="56.228605"
     inkscape:cy="48.381821"
     inkscape:document-units="mm"
     inkscape:current-layer="layer1"
     inkscape:document-rotation="0"
     showgrid="false"
     fit-margin-top="1"
     fit-margin-right="1"
     fit-margin-bottom="1"
     fit-margin-left="1"
     inkscape:window-width="1853"
     inkscape:window-height="1025"
     inkscape:window-x="67"
     inkscape:window-y="27"
     inkscape:window-maximized="1" />
  <metadata
     id="metadata8034">
    <rdf:RDF>
      <cc:Work
         rdf:about="">
        <dc:format>image/svg+xml</dc:format>
        <dc:type
           rdf:resource="http://purl.org/dc/dcmitype/StillImage" />
        <dc:title></dc:title>
      </cc:Work>
    </rdf:RDF>
  </metadata>
  <g
     inkscape:label="Capa 1"
     inkscape:groupmode="layer"
     id="layer1"
     transform="translate(-90.956194,-63.749101)">
    <g
       id="g14571"
       transform="matrix(0.35277777,0,0,-0.35277777,-48.937638,121.67087)">
      <g
         id="g1664"
         transform="translate(421.6545,121.8854)">
        <path
           d="M 0,0 -1.167,12.011 -5.672,10.137 -7.747,-3.371 c -0.155,-1.011 0.232,-2.005 0.979,-2.658 l 8.613,3.583 C 0.822,-2.038 0.107,-1.099 0,0"
           style="fill:#dadada;fill-opacity:1;fill-rule:nonzero;stroke:none"
           id="path1666" />
      </g>
      <g
         id="g1668"
         transform="translate(416.2224,131.8347)">
        <path
           d="m 0,0 -2.052,-13.36 c -0.174,-1.131 0.389,-2.249 1.404,-2.781 l 3.111,-1.631 c 0.325,-0.171 0.705,-0.186 1.044,-0.046 l 7.776,3.235 c 0.12,0.051 0.128,0.163 0.128,0.196 -10e-4,0.033 -0.013,0.144 -0.135,0.19 l -4.047,1.529 c -1.152,0.435 -1.942,1.467 -2.061,2.692 L 4.036,1.68 Z m 3.033,-18.443 c -0.281,0 -0.56,0.067 -0.816,0.201 l -3.112,1.631 c -1.214,0.637 -1.891,1.976 -1.681,3.332 l 2.075,13.507 c 0.014,0.091 0.074,0.168 0.16,0.204 L 4.164,2.307 C 4.24,2.34 4.33,2.333 4.402,2.29 4.474,2.247 4.521,2.172 4.53,2.088 L 5.696,-9.924 c 0.1,-1.023 0.759,-1.885 1.721,-2.249 l 4.046,-1.528 c 0.286,-0.107 0.473,-0.373 0.478,-0.678 0.005,-0.304 -0.173,-0.576 -0.454,-0.693 L 3.71,-18.308 c -0.218,-0.091 -0.447,-0.135 -0.677,-0.135"
           style="fill:#41404d;fill-opacity:1;fill-rule:nonzero;stroke:none"
           id="path1670" />
      </g>
      <g
         id="g1672"
         transform="translate(402.4621,115.3683)">
        <path
           d="m 0,0 c -0.041,0 -0.081,0.009 -0.118,0.028 l -2.23,1.115 c -0.465,0.288 -0.73,0.763 -0.73,1.283 v 27.227 c 0,1.263 0.754,2.391 1.919,2.876 l 24.311,10.175 c 0.134,0.056 0.291,-0.007 0.348,-0.142 0.057,-0.135 -0.008,-0.291 -0.143,-0.347 L -0.955,32.04 C -1.922,31.637 -2.547,30.7 -2.547,29.653 V 2.426 c 0,-0.336 0.171,-0.642 0.457,-0.821 L 0.118,0.503 C 0.25,0.437 0.303,0.278 0.237,0.147 0.191,0.054 0.098,0 0,0"
           style="fill:#41404d;fill-opacity:1;fill-rule:nonzero;stroke:none"
           id="path1674" />
      </g>
      <g
         id="g1676"
         transform="translate(429.0686,158.9509)">
        <path
           d="m 0,0 c -0.105,0 -0.204,0.062 -0.246,0.166 -0.055,0.136 0.011,0.29 0.146,0.345 L 3.991,2.159 C 4.396,2.327 5.225,2.544 5.76,2.276 L 7.836,1.335 C 7.969,1.275 8.029,1.118 7.968,0.985 7.907,0.852 7.752,0.793 7.617,0.853 L 5.532,1.797 C 5.235,1.944 4.621,1.847 4.192,1.667 L 0.099,0.019 C 0.066,0.006 0.033,0 0,0"
           style="fill:#41404d;fill-opacity:1;fill-rule:nonzero;stroke:none"
           id="path1678" />
      </g>
      <g
         id="g1680"
         transform="translate(403.4148,146.6452)">
        <path
           d="m 0,0 32.329,13.45 c 0.81,0.337 1.702,-0.258 1.702,-1.135 v -27.033 c 0,-1.146 -0.686,-2.18 -1.741,-2.625 L -0.047,-30.991 c -0.811,-0.342 -1.708,0.253 -1.708,1.133 V -2.631 C -1.755,-1.48 -1.062,-0.442 0,0"
           style="fill:#ffffff;fill-opacity:1;fill-rule:nonzero;stroke:none"
           id="path1682" />
      </g>
      <g
         id="g1684"
         transform="translate(405.0529,143.9362)">
        <path
           d="M 0,0 V 3.39 L 1.591,4.052 V 0.662 Z"
           style="fill:#dadada;fill-opacity:1;fill-rule:nonzero;stroke:none"
           id="path1686" />
      </g>
      <g
         id="g1688"
         transform="translate(435.7434,160.0954)">
        <path
           d="m 0,0 h 0.006 z m 0.476,-0.169 c -0.126,0 -0.252,-0.025 -0.374,-0.076 l -32.33,-13.449 c -0.965,-0.404 -1.59,-1.341 -1.59,-2.387 v -27.227 c 0,-0.33 0.157,-0.623 0.432,-0.804 0.274,-0.183 0.605,-0.214 0.907,-0.084 l 32.336,13.647 c 0.96,0.405 1.58,1.34 1.58,2.382 v 27.032 c 0,0.327 -0.156,0.62 -0.429,0.802 -0.163,0.108 -0.347,0.164 -0.532,0.164 m -33.33,-44.635 c -0.29,0 -0.577,0.084 -0.825,0.249 -0.42,0.278 -0.67,0.744 -0.67,1.247 v 27.227 c 0,1.262 0.753,2.391 1.918,2.875 L -0.102,0.245 C 0.359,0.437 0.884,0.387 1.303,0.108 1.719,-0.169 1.968,-0.634 1.968,-1.135 v -27.032 c 0,-1.257 -0.747,-2.383 -1.904,-2.871 l -32.336,-13.648 c -0.187,-0.078 -0.385,-0.118 -0.582,-0.118"
           style="fill:#41404d;fill-opacity:1;fill-rule:nonzero;stroke:none"
           id="path1690" />
      </g>
      <g
         id="g1692"
         transform="translate(418.2224,125.6335)">
        <path
           d="M 0,0 V 2.848 L 1.591,3.51 V 0.662 Z"
           style="fill:#dadada;fill-opacity:1;fill-rule:nonzero;stroke:none"
           id="path1694" />
      </g>
      <g
         id="g1696"
         transform="translate(437.4455,133.7497)">
        <path
           d="M 0,0 -35.785,-15.111"
           style="fill:#dadada;fill-opacity:1;fill-rule:nonzero;stroke:none"
           id="path1698" />
      </g>
      <g
         id="g1700"
         transform="translate(401.6599,118.3727)">
        <path
           d="m 0,0 c -0.104,0 -0.202,0.061 -0.245,0.162 -0.056,0.135 0.007,0.291 0.141,0.348 l 35.786,15.112 c 0.138,0.058 0.292,-0.008 0.348,-0.142 0.056,-0.135 -0.007,-0.291 -0.141,-0.348 L 0.104,0.021 C 0.069,0.006 0.034,0 0,0"
           style="fill:#41404d;fill-opacity:1;fill-rule:nonzero;stroke:none"
           id="path1702" />
      </g>
      <g
         id="g1704"
         transform="translate(437.4455,133.7497)">
        <path
           d="m 0,0 v -1.818 c 0,-1.144 -0.687,-2.18 -1.746,-2.625 l -32.33,-13.655 c -0.818,-0.337 -1.709,0.253 -1.709,1.132 v 1.855 z"
           style="fill:#dadada;fill-opacity:1;fill-rule:nonzero;stroke:none"
           id="path1706" />
      </g>
      <g
         id="g1708"
         transform="translate(401.9255,118.4621)">
        <path
           d="m 0,0 v -1.678 c 0,-0.326 0.154,-0.616 0.425,-0.797 0.274,-0.184 0.608,-0.217 0.919,-0.089 l 32.327,13.653 c 0.962,0.405 1.583,1.339 1.583,2.381 v 1.418 z m 0.964,-3.17 c -0.294,0 -0.585,0.086 -0.835,0.253 -0.413,0.277 -0.66,0.741 -0.66,1.239 v 1.854 c 0,0.107 0.065,0.203 0.162,0.244 l 35.785,15.112 c 0.083,0.033 0.177,0.027 0.25,-0.024 0.074,-0.049 0.119,-0.132 0.119,-0.22 V 13.47 c 0,-1.256 -0.749,-2.382 -1.908,-2.87 L 1.548,-3.054 C 1.359,-3.132 1.161,-3.17 0.964,-3.17"
           style="fill:#41404d;fill-opacity:1;fill-rule:nonzero;stroke:none"
           id="path1710" />
      </g>
      <g
         id="g1712"
         transform="translate(404.2732,143.612)">
        <path
           d="M 0,0 30.953,12.877 V -8.003 L 0,-21.066 Z"
           style="fill:#f4c151;fill-opacity:1;fill-rule:nonzero;stroke:none"
           id="path1714" />
      </g>
      <g
         id="g1716"
         transform="translate(404.5388,143.4348)">
        <path
           d="M 0,0 V -20.489 L 30.422,-7.65 v 20.307 z m -0.265,-21.154 c -0.052,0 -0.103,0.014 -0.147,0.045 -0.074,0.048 -0.118,0.131 -0.118,0.22 V 0.177 c 0,0.107 0.064,0.204 0.163,0.245 L 30.586,13.3 c 0.081,0.033 0.175,0.024 0.248,-0.025 0.074,-0.049 0.119,-0.132 0.119,-0.22 V -7.826 c 0,-0.107 -0.064,-0.203 -0.162,-0.245 L -0.162,-21.133 c -0.033,-0.014 -0.068,-0.021 -0.103,-0.021"
           style="fill:#41404d;fill-opacity:1;fill-rule:nonzero;stroke:none"
           id="path1718" />
      </g>
      <g
         id="g1720"
         transform="translate(401.6599,118.6389)">
        <path
           d="M 0,0 35.786,15.104"
           style="fill:#ffffff;fill-opacity:1;fill-rule:nonzero;stroke:none"
           id="path1722" />
      </g>
      <g
         id="g1724"
         transform="translate(401.6599,118.3737)">
        <path
           d="m 0,0 c -0.104,0 -0.202,0.061 -0.245,0.162 -0.056,0.135 0.007,0.291 0.141,0.348 l 35.787,15.103 c 0.137,0.059 0.292,-0.007 0.348,-0.141 0.057,-0.136 -0.007,-0.291 -0.141,-0.348 L 0.104,0.021 C 0.069,0.006 0.034,0 0,0"
           style="fill:#41404d;fill-opacity:1;fill-rule:nonzero;stroke:none"
           id="path1726" />
      </g>
      <g
         id="g1728"
         transform="translate(420.6677,146.0012)">
        <path
           d="m 0,0 28.772,11.97 c 0.575,0.239 1.208,-0.183 1.208,-0.806 V -7.36 c 0,-0.635 -0.38,-1.208 -0.965,-1.455 L 0.368,-20.905 c -0.637,-0.269 -1.341,0.198 -1.341,0.889 v 18.558 c 0,0.637 0.384,1.213 0.973,1.458"
           style="fill:#ffffff;fill-opacity:1;fill-rule:nonzero;stroke:none"
           id="path1730" />
      </g>
      <g
         id="g1732"
         transform="translate(407.6057,155.2502)">
        <path
           d="M 0,0 8.403,3.57 C 9.085,3.86 9.842,3.359 9.842,2.618 V -15.67 c 0,-0.625 -0.369,-1.192 -0.941,-1.445 l -8.365,-3.698 c -0.705,-0.312 -1.498,0.205 -1.498,0.975 V -1.454 C -0.962,-0.82 -0.583,-0.248 0,0"
           style="fill:#ffffff;fill-opacity:1;fill-rule:nonzero;stroke:none"
           id="path1734" />
      </g>
      <g
         id="g1736"
         transform="translate(407.6062,155.2502)">
        <path
           d="M 0,0 H 0.006 Z M 8.81,3.389 C 8.708,3.389 8.606,3.368 8.506,3.326 L 0.104,-0.245 c -0.487,-0.206 -0.801,-0.681 -0.801,-1.209 v -18.383 c 0,-0.276 0.133,-0.52 0.364,-0.672 0.233,-0.15 0.507,-0.173 0.761,-0.062 l 8.365,3.698 c 0.476,0.211 0.784,0.683 0.784,1.203 V 2.618 C 9.577,2.88 9.451,3.114 9.231,3.259 9.102,3.345 8.957,3.389 8.81,3.389 M 0.104,-21.17 c -0.254,0 -0.507,0.072 -0.727,0.216 -0.379,0.247 -0.605,0.665 -0.605,1.117 v 18.383 c 0,0.742 0.442,1.408 1.124,1.698 l 8.403,3.57 C 8.701,3.986 9.159,3.943 9.524,3.702 9.89,3.46 10.107,3.055 10.107,2.618 V -15.67 c 0,-0.73 -0.431,-1.392 -1.099,-1.687 L 0.643,-21.056 C 0.47,-21.133 0.286,-21.17 0.104,-21.17"
           style="fill:#41404d;fill-opacity:1;fill-rule:nonzero;stroke:none"
           id="path1738" />
      </g>
      <g
         id="g1740"
         transform="translate(415.6203,151.528)">
        <path
           d="m 0,0 -6.86,-2.854 v -1.869 l 6.847,2.848 z"
           style="fill:#ffffff;fill-opacity:1;fill-rule:nonzero;stroke:none"
           id="path1742" />
      </g>
      <g
         id="g1744"
         transform="translate(409.0261,148.4963)">
        <path
           d="m 0,0 v -1.293 l 6.317,2.628 0.009,1.297 z m -0.265,-1.957 c -0.052,0 -0.103,0.016 -0.148,0.045 -0.073,0.05 -0.118,0.132 -0.118,0.221 v 1.868 c 0,0.107 0.065,0.204 0.164,0.245 l 6.86,2.854 C 6.573,3.313 6.667,3.3 6.742,3.252 6.816,3.202 6.86,3.118 6.859,3.029 L 6.847,1.155 C 6.846,1.05 6.782,0.954 6.683,0.913 L -0.164,-1.936 C -0.196,-1.95 -0.231,-1.957 -0.265,-1.957"
           style="fill:#41404d;fill-opacity:1;fill-rule:nonzero;stroke:none"
           id="path1746" />
      </g>
      <g
         id="g1748"
         transform="translate(415.6203,148.2766)">
        <path
           d="m 0,0 -6.86,-2.854 v -1.869 l 6.847,2.848 z"
           style="fill:#ffffff;fill-opacity:1;fill-rule:nonzero;stroke:none"
           id="path1750" />
      </g>
      <g
         id="g1752"
         transform="translate(409.0261,145.2453)">
        <path
           d="m 0,0 v -1.294 l 6.317,2.628 0.009,1.298 z m -0.265,-1.958 c -0.052,0 -0.103,0.016 -0.148,0.045 -0.073,0.05 -0.118,0.132 -0.118,0.221 v 1.869 c 0,0.107 0.065,0.204 0.164,0.245 l 6.86,2.854 C 6.573,3.312 6.667,3.301 6.742,3.251 6.816,3.202 6.86,3.118 6.859,3.029 L 6.847,1.154 C 6.846,1.049 6.782,0.953 6.683,0.912 l -6.847,-2.849 c -0.032,-0.014 -0.067,-0.021 -0.101,-0.021"
           style="fill:#41404d;fill-opacity:1;fill-rule:nonzero;stroke:none"
           id="path1754" />
      </g>
      <g
         id="g1756"
         transform="translate(410.7444,139.4753)">
        <path
           d="m 0,0 c -0.104,0 -0.202,0.061 -0.245,0.164 -0.057,0.134 0.008,0.29 0.143,0.346 L 2.777,1.707 C 2.912,1.765 3.067,1.7 3.124,1.563 3.181,1.429 3.116,1.273 2.98,1.218 L 0.102,0.021 C 0.068,0.006 0.034,0 0,0"
           style="fill:#41404d;fill-opacity:1;fill-rule:nonzero;stroke:none"
           id="path1758" />
      </g>
      <g
         id="g1760"
         transform="translate(406.9328,152.5295)">
        <path
           d="m 0,0 c -0.104,0 -0.202,0.062 -0.245,0.164 -0.057,0.135 0.008,0.29 0.143,0.346 L 10.414,4.886 C 10.547,4.939 10.704,4.877 10.76,4.743 10.817,4.607 10.753,4.452 10.617,4.396 L 0.102,0.021 C 0.068,0.006 0.034,0 0,0"
           style="fill:#41404d;fill-opacity:1;fill-rule:nonzero;stroke:none"
           id="path1762" />
      </g>
      <g
         id="g1764"
         transform="translate(450.6477,137.5944)">
        <path
           d="M 0,0 V 10.651 L -8.173,7.16 C -8.756,6.912 -9.135,6.339 -9.135,5.706 v -9.577 z"
           style="fill:#dadada;fill-opacity:1;fill-rule:nonzero;stroke:none"
           id="path1766" />
      </g>
      <g
         id="g1768"
         transform="translate(449.4392,157.9714)">
        <path
           d="m 0,0 h 0.006 z m 0.338,-0.197 c -0.08,0 -0.159,-0.016 -0.236,-0.048 l -28.771,-11.97 c -0.492,-0.204 -0.81,-0.681 -0.81,-1.214 v -18.557 c 0,-0.239 0.114,-0.452 0.313,-0.583 0.199,-0.133 0.438,-0.158 0.66,-0.062 l 28.645,12.09 c 0.489,0.206 0.804,0.681 0.804,1.21 v 18.525 c 0,0.207 -0.098,0.391 -0.27,0.505 -0.103,0.069 -0.219,0.104 -0.335,0.104 m -29.116,-33.021 c -0.239,0 -0.476,0.07 -0.681,0.206 -0.344,0.229 -0.55,0.613 -0.55,1.026 v 18.557 c 0,0.749 0.446,1.417 1.136,1.703 L -0.102,0.245 C 0.25,0.391 0.65,0.354 0.967,0.141 1.284,-0.07 1.474,-0.424 1.474,-0.806 v -18.525 c 0,-0.744 -0.443,-1.41 -1.129,-1.699 L -28.3,-33.121 c -0.154,-0.065 -0.317,-0.097 -0.478,-0.097"
           style="fill:#41404d;fill-opacity:1;fill-rule:nonzero;stroke:none"
           id="path1770" />
      </g>
      <g
         id="g1772"
         transform="translate(447.7697,152.3586)">
        <path
           d="m 0,0 c -0.102,0 -0.204,-0.021 -0.303,-0.063 l -12.709,-5.44 c -0.487,-0.207 -0.801,-0.682 -0.801,-1.21 v -14.814 l 14.581,6.137 v 14.619 c 0,0.262 -0.125,0.497 -0.344,0.641 C 0.293,-0.044 0.148,0 0,0 m -14.078,-22.191 c -0.052,0 -0.103,0.014 -0.148,0.044 -0.073,0.049 -0.118,0.131 -0.118,0.221 v 15.213 c 0,0.742 0.441,1.408 1.124,1.698 l 12.709,5.44 C -0.104,0.596 0.354,0.555 0.717,0.312 1.081,0.07 1.298,-0.333 1.298,-0.771 v -14.795 c 0,-0.107 -0.064,-0.204 -0.162,-0.245 l -15.112,-6.36 c -0.033,-0.013 -0.067,-0.02 -0.102,-0.02"
           style="fill:#41404d;fill-opacity:1;fill-rule:nonzero;stroke:none"
           id="path1774" />
      </g>
      <g
         id="g1776"
         transform="translate(423.1506,142.364)">
        <path
           d="M 0,0 7.221,3.068 C 7.808,3.317 8.458,2.887 8.458,2.25 v -15.056 l -9.285,-3.92 V -1.25 c 0,0.545 0.326,1.037 0.827,1.25"
           style="fill:#ffffff;fill-opacity:1;fill-rule:nonzero;stroke:none"
           id="path1778" />
      </g>
      <g
         id="g1780"
         transform="translate(423.1511,142.3635)">
        <path
           d="M 0,0 H 0.006 Z M 7.571,2.875 C 7.488,2.875 7.405,2.858 7.325,2.824 L 0.104,-0.245 C -0.3,-0.416 -0.562,-0.81 -0.562,-1.249 v -15.076 l 8.755,3.697 V 2.25 C 8.193,2.463 8.09,2.653 7.913,2.771 7.808,2.84 7.69,2.875 7.571,2.875 M -0.827,-16.99 c -0.052,0 -0.103,0.014 -0.146,0.044 -0.075,0.049 -0.119,0.132 -0.119,0.221 v 15.476 c 0,0.653 0.388,1.239 0.988,1.494 L 7.117,3.313 C 7.475,3.464 7.882,3.427 8.206,3.213 8.53,2.999 8.724,2.638 8.724,2.25 v -15.055 c 0,-0.107 -0.064,-0.203 -0.162,-0.244 l -9.285,-3.921 c -0.033,-0.013 -0.069,-0.02 -0.104,-0.02"
           style="fill:#41404d;fill-opacity:1;fill-rule:nonzero;stroke:none"
           id="path1782" />
      </g>
      <g
         id="g1784"
         transform="translate(424.2951,133.2482)">
        <path
           d="m 0,0 c -0.104,0 -0.202,0.061 -0.245,0.164 -0.057,0.134 0.008,0.29 0.143,0.346 L 5.632,2.895 C 5.767,2.952 5.921,2.888 5.979,2.752 6.036,2.618 5.971,2.462 5.835,2.406 L 0.102,0.021 C 0.068,0.006 0.034,0 0,0"
           style="fill:#41404d;fill-opacity:1;fill-rule:nonzero;stroke:none"
           id="path1786" />
      </g>
      <g
         id="g1788"
         transform="translate(436.153,139.3742)">
        <path
           d="M 0,0 8.522,3.545 V -2.204 L 0,-5.8 Z"
           style="fill:#f4c151;fill-opacity:1;fill-rule:nonzero;stroke:none"
           id="path1790" />
      </g>
      <g
         id="g1792"
         transform="translate(436.4182,139.1965)">
        <path
           d="m 0,0 v -5.223 l 7.992,3.373 v 5.176 z m -0.266,-5.888 c -0.051,0 -0.102,0.014 -0.147,0.044 -0.073,0.049 -0.118,0.132 -0.118,0.221 v 5.8 c 0,0.107 0.064,0.204 0.164,0.245 L 8.156,3.968 C 8.237,4.004 8.33,3.993 8.404,3.944 8.478,3.895 8.522,3.813 8.522,3.724 v -5.75 c 0,-0.107 -0.064,-0.203 -0.161,-0.245 l -8.523,-3.597 c -0.033,-0.013 -0.068,-0.02 -0.104,-0.02"
           style="fill:#41404d;fill-opacity:1;fill-rule:nonzero;stroke:none"
           id="path1794" />
      </g>
      <g
         id="g1796"
         transform="translate(425.5935,132.0388)">
        <path
           d="m 0,0 c -0.104,0 -0.202,0.061 -0.244,0.164 -0.057,0.134 0.007,0.29 0.142,0.346 L 3.036,1.814 C 3.169,1.874 3.325,1.808 3.382,1.671 3.438,1.537 3.375,1.381 3.239,1.325 L 0.102,0.021 C 0.069,0.006 0.034,0 0,0"
           style="fill:#41404d;fill-opacity:1;fill-rule:nonzero;stroke:none"
           id="path1798" />
      </g>
      <g
         id="g1800"
         transform="translate(436.1765,144.1447)">
        <path
           d="m 0,0 c -0.104,0 -0.202,0.061 -0.245,0.164 -0.057,0.134 0.008,0.29 0.143,0.346 L 10.04,4.729 C 10.174,4.787 10.33,4.722 10.386,4.586 10.443,4.451 10.379,4.295 10.243,4.24 L 0.102,0.021 C 0.068,0.006 0.034,0 0,0"
           style="fill:#41404d;fill-opacity:1;fill-rule:nonzero;stroke:none"
           id="path1802" />
      </g>
      <g
         id="g1804"
         transform="translate(419.695,143.2712)">
        <path
           d="m 0,0 c -0.104,0 -0.202,0.061 -0.245,0.164 -0.057,0.134 0.008,0.29 0.143,0.346 l 30.718,12.781 c 0.134,0.054 0.29,-0.008 0.346,-0.143 0.057,-0.135 -0.007,-0.291 -0.143,-0.347 L 0.102,0.021 C 0.068,0.006 0.034,0 0,0"
           style="fill:#41404d;fill-opacity:1;fill-rule:nonzero;stroke:none"
           id="path1806" />
      </g>
      <g
         id="g1808"
         transform="translate(428.7478,138.3625)">
        <path
           d="m 0,0 c -0.467,-1.123 -1.556,-1.737 -2.432,-1.373 -0.875,0.364 -1.206,1.57 -0.739,2.692 0.467,1.123 1.555,1.738 2.431,1.374 C 0.136,2.328 0.467,1.123 0,0"
           style="fill:#ffffff;fill-opacity:1;fill-rule:nonzero;stroke:none"
           id="path1810" />
      </g>
      <g
         id="g1812"
         transform="translate(427.4734,140.8962)">
        <path
           d="m 0,0 c -0.639,0 -1.319,-0.515 -1.653,-1.316 -0.409,-0.986 -0.14,-2.039 0.597,-2.347 0.743,-0.304 1.676,0.247 2.085,1.23 0.409,0.987 0.142,2.039 -0.597,2.348 C 0.293,-0.028 0.148,0 0,0 m -0.632,-4.276 c -0.213,0 -0.425,0.039 -0.627,0.124 -1.01,0.42 -1.405,1.784 -0.883,3.039 0.522,1.257 1.768,1.936 2.777,1.517 1.01,-0.42 1.407,-1.783 0.884,-3.04 -0.417,-1.004 -1.298,-1.64 -2.151,-1.64"
           style="fill:#41404d;fill-opacity:1;fill-rule:nonzero;stroke:none"
           id="path1814" />
      </g>
      <g
         id="g1816"
         transform="translate(443.947,144.071)">
        <path
           d="M 0,0 8.75,3.718 C 9.268,3.938 9.842,3.558 9.842,2.996 V -8.869 c 0,-0.625 -0.369,-1.192 -0.941,-1.444 L 0.14,-14.187 c -0.518,-0.229 -1.102,0.151 -1.102,0.718 V -1.454 C -0.962,-0.82 -0.583,-0.248 0,0"
           style="fill:#f4c151;fill-opacity:1;fill-rule:nonzero;stroke:none"
           id="path1818" />
      </g>
      <g
         id="g1820"
         transform="translate(443.947,144.0715)">
        <path
           d="M 0,0 H 0.006 Z M 9.059,3.516 C 8.99,3.516 8.92,3.502 8.854,3.474 l -8.75,-3.719 c -0.487,-0.206 -0.801,-0.681 -0.801,-1.209 v -12.015 c 0,-0.179 0.086,-0.338 0.237,-0.435 0.149,-0.098 0.328,-0.114 0.494,-0.041 l 8.76,3.874 c 0.476,0.21 0.783,0.682 0.783,1.202 V 2.996 C 9.577,3.173 9.492,3.331 9.344,3.429 9.257,3.487 9.159,3.516 9.059,3.516 M -0.176,-14.52 c -0.201,0 -0.401,0.058 -0.574,0.171 -0.299,0.195 -0.477,0.523 -0.477,0.88 v 12.015 c 0,0.742 0.44,1.408 1.123,1.698 L 8.647,3.963 C 8.974,4.101 9.343,4.064 9.638,3.872 9.932,3.676 10.108,3.349 10.108,2.996 V -8.869 c 0,-0.73 -0.431,-1.392 -1.1,-1.687 L 0.249,-14.43 c -0.137,-0.06 -0.282,-0.09 -0.425,-0.09"
           style="fill:#41404d;fill-opacity:1;fill-rule:nonzero;stroke:none"
           id="path1822" />
      </g>
      <g
         id="g1824"
         transform="translate(444.9787,142.0558)">
        <path
           d="m 0,0 7.221,3.107 v -3.24 L 0,-3.301 Z"
           style="fill:#ffffff;fill-opacity:1;fill-rule:nonzero;stroke:none"
           id="path1826" />
      </g>
      <g
         id="g1828"
         transform="translate(445.2444,141.8806)">
        <path
           d="M 0,0 V -2.719 L 6.69,0.215 V 2.88 Z m -0.266,-3.391 c -0.05,0 -0.101,0.015 -0.145,0.044 -0.074,0.048 -0.12,0.132 -0.12,0.222 v 3.3 c 0,0.106 0.064,0.202 0.161,0.243 L 6.851,3.526 C 6.932,3.562 7.027,3.553 7.102,3.505 7.176,3.455 7.221,3.372 7.221,3.283 V 0.042 c 0,-0.105 -0.062,-0.201 -0.159,-0.242 l -7.221,-3.168 c -0.034,-0.016 -0.07,-0.023 -0.107,-0.023"
           style="fill:#41404d;fill-opacity:1;fill-rule:nonzero;stroke:none"
           id="path1830" />
      </g>
      <g
         id="g1832"
         transform="translate(445.9353,136.1838)">
        <path
           d="m 0,0 c -0.104,0 -0.202,0.061 -0.244,0.164 -0.057,0.134 0.007,0.29 0.142,0.346 L 5.634,2.896 C 5.768,2.954 5.924,2.888 5.979,2.752 6.037,2.618 5.973,2.462 5.837,2.406 L 0.102,0.021 C 0.068,0.006 0.034,0 0,0"
           style="fill:#41404d;fill-opacity:1;fill-rule:nonzero;stroke:none"
           id="path1834" />
      </g>
      <g
         id="g1836"
         transform="translate(447.2351,134.9743)">
        <path
           d="m 0,0 c -0.104,0 -0.202,0.062 -0.245,0.164 -0.057,0.135 0.008,0.29 0.143,0.346 L 3.035,1.815 C 3.169,1.872 3.325,1.809 3.381,1.672 3.438,1.537 3.374,1.382 3.238,1.326 L 0.102,0.021 C 0.068,0.006 0.034,0 0,0"
           style="fill:#41404d;fill-opacity:1;fill-rule:nonzero;stroke:none"
           id="path1838" />
      </g>
    </g>
  </g>
</svg>
